<?xml version="1.0" standalone="no"?>
<!DOCTYPE svg PUBLIC "-//W3C//DTD SVG 20010904//EN"
 "http://www.w3.org/TR/2001/REC-SVG-20010904/DTD/svg10.dtd">
<svg version="1.0" xmlns="http://www.w3.org/2000/svg"
 width="1024.000000pt" height="1024.000000pt" viewBox="0 0 1024.000000 1024.000000"
 preserveAspectRatio="xMidYMid meet">
<metadata>
Created by potrace 1.16, written by Peter Selinger 2001-2019
</metadata>
<g transform="translate(0.000000,1024.000000) scale(0.100000,-0.100000)"
fill="#000000" stroke="none">
<path d="M3230 8247 c-172 -58 -291 -184 -334 -353 -14 -55 -16 -215 -16
-1444 0 -1526 -4 -1433 63 -1570 39 -80 121 -164 203 -207 125 -66 10 -63
1935 -63 1207 0 1764 3 1805 11 168 31 312 156 375 329 l24 65 0 1430 0 1430
-23 59 c-61 162 -189 279 -349 321 -50 13 -291 15 -1838 15 l-1780 -1 -65 -22z
m3567 -429 c77 -29 152 -100 188 -179 24 -54 27 -70 23 -147 -4 -102 -27 -158
-92 -225 -158 -163 -427 -120 -532 85 -39 75 -45 190 -15 269 66 174 256 262
428 197z m-1525 -27 l33 -29 3 -665 2 -665 -87 -140 -88 -140 -3 686 -2 687
-515 -3 -515 -2 0 -1120 0 -1120 -376 0 c-412 0 -423 1 -457 59 -16 27 -17
116 -17 1226 l0 1197 29 29 29 29 966 0 966 0 32 -29z m771 -384 c69 -34 130
-97 165 -167 22 -46 26 -69 26 -140 1 -106 -29 -177 -103 -249 -70 -69 -140
-94 -246 -89 -128 5 -230 71 -285 183 -22 43 -25 64 -25 155 0 90 3 111 23
148 46 86 119 150 205 178 65 21 174 13 240 -19z m-1042 -75 c15 -13 22 -30
22 -52 0 -31 -19 -53 -201 -231 -216 -212 -240 -233 -265 -223 -9 3 -62 56
-117 117 -111 123 -121 149 -74 186 15 12 34 21 44 21 9 0 49 -33 88 -72 l72
-73 97 96 c267 261 283 271 334 231z m1833 -321 c115 -40 209 -136 257 -259
20 -50 23 -80 27 -244 l4 -187 -25 -25 -26 -26 -280 0 -280 0 -40 79 c-47 95
-87 156 -154 234 -48 56 -49 59 -43 104 20 148 164 300 321 340 67 17 167 10
239 -16z m-1845 -407 c12 -15 21 -36 21 -47 0 -25 -404 -435 -437 -443 -30 -8
-37 -2 -146 114 -75 79 -97 109 -97 130 0 44 22 66 65 66 33 0 45 -8 102 -67
l65 -67 173 170 c147 145 177 170 203 170 21 0 37 -8 51 -26z m961 -5 c126
-20 234 -102 288 -217 24 -51 27 -69 27 -167 0 -106 -1 -112 -34 -173 -41 -75
-103 -135 -179 -170 -50 -24 -70 -27 -157 -27 -89 0 -107 3 -163 29 -80 37
-161 122 -193 203 -35 86 -33 216 3 296 51 110 167 204 278 226 62 12 57 12
130 0z m-971 -705 c12 -15 21 -36 21 -48 1 -30 -415 -436 -446 -436 -32 0
-224 209 -224 245 0 33 33 65 68 65 22 0 44 -16 97 -71 l68 -70 172 170 c186
186 204 196 244 145z m1029 -190 c212 -43 387 -201 446 -403 12 -40 16 -97 16
-213 0 -145 -2 -160 -20 -178 -20 -20 -33 -20 -560 -20 -527 0 -540 0 -560 20
-18 18 -20 33 -20 163 0 215 36 324 147 447 145 160 343 227 551 184z"/>
<path d="M3455 7496 c-23 -34 -18 -437 5 -460 19 -18 19 -19 251 -17 l196 1
11 25 c8 17 12 96 12 228 0 167 -3 206 -16 225 -15 22 -19 22 -229 22 l-215 0
-15 -24z"/>
<path d="M3637 6780 c-44 -13 -95 -57 -118 -102 -45 -87 -6 -213 78 -257 l38
-19 0 -185 0 -184 -35 -19 c-19 -11 -48 -39 -65 -62 -27 -39 -30 -52 -30 -116
0 -63 4 -78 27 -112 41 -59 81 -79 159 -79 55 0 72 4 108 28 58 39 96 119 87
186 -7 55 -48 117 -99 150 l-37 24 0 187 0 186 34 17 c65 31 113 123 100 194
-9 53 -27 85 -68 121 -52 46 -117 61 -179 42z"/>
<path d="M6750 4294 c-105 -28 -186 -98 -232 -201 -18 -38 -23 -67 -23 -143 0
-84 3 -102 28 -152 47 -96 108 -133 346 -213 106 -36 152 -57 176 -80 58 -54
56 -132 -5 -177 -82 -60 -341 -38 -487 42 l-53 28 0 -113 0 -113 48 -20 c106
-46 170 -57 332 -57 140 0 161 2 219 24 82 31 169 110 202 183 33 73 34 221 3
288 -44 94 -99 128 -343 211 -169 57 -205 81 -217 144 -10 55 18 103 76 133
82 43 269 20 433 -52 16 -7 17 1 17 98 l0 107 -52 23 c-123 54 -344 73 -468
40z"/>
<path d="M2890 4291 c-1 -3 -2 -273 -3 -598 l-2 -593 128 0 127 0 0 179 0 179
144 1 c196 2 284 26 372 104 178 155 192 482 28 627 -91 80 -189 99 -529 103
-146 2 -265 1 -265 -2z m531 -232 c72 -24 109 -84 109 -174 0 -89 -42 -164
-107 -191 -21 -9 -74 -14 -158 -14 l-125 0 0 195 0 195 124 0 c67 0 138 -5
157 -11z"/>
<path d="M3900 4183 l0 -113 175 0 175 0 0 -485 0 -485 130 0 130 0 0 485 0
485 175 0 176 0 -3 111 -3 112 -478 1 -477 1 0 -112z"/>
<path d="M5020 3698 l0 -598 126 0 125 0 -3 400 c-2 326 -1 395 9 373 7 -16
78 -167 157 -338 l143 -310 77 -3 77 -3 66 138 c36 76 108 230 159 343 l94
205 0 -402 0 -403 125 0 125 0 0 598 0 597 -161 -1 -161 -1 -83 -189 c-45
-104 -115 -265 -155 -357 -40 -93 -76 -165 -80 -160 -7 7 -68 151 -261 613
l-40 95 -169 0 -170 0 0 -597z"/>
<path d="M6200 2656 l0 -246 38 0 37 0 -4 51 c-2 42 1 55 20 75 12 13 26 24
30 24 3 0 28 -34 55 -75 48 -74 49 -75 92 -75 l44 0 -38 53 c-21 28 -53 74
-72 100 l-35 49 69 69 68 69 -44 0 c-43 1 -48 -2 -118 -77 l-72 -78 1 150 1
150 -36 3 -36 3 0 -245z"/>
<path d="M2885 2646 l0 -236 38 0 37 0 0 80 0 80 63 0 c75 0 122 21 154 69 30
44 31 122 3 168 -34 57 -62 68 -185 71 l-110 4 0 -236z m215 139 c14 -13 20
-31 20 -61 0 -59 -32 -84 -106 -84 l-54 0 0 86 0 86 60 -4 c39 -3 66 -11 80
-23z"/>
<path d="M5225 2845 l0 -35 63 0 62 0 0 -200 0 -200 40 0 40 0 0 200 0 200 60
0 60 0 0 35 0 35 -162 0 -163 0 0 -35z"/>
<path d="M4852 2805 c3 -51 2 -55 -19 -55 -19 0 -23 -6 -23 -30 0 -23 4 -30
20 -30 19 0 20 -7 20 -92 0 -126 12 -166 55 -184 66 -27 115 -16 115 26 0 25
-3 28 -34 28 -19 0 -39 3 -45 7 -7 4 -11 47 -11 111 l0 104 45 0 c43 0 45 1
45 30 0 29 -2 30 -45 30 l-45 0 0 55 0 55 -41 0 -41 0 4 -55z"/>
<path d="M3313 2752 l-33 -3 0 -170 0 -169 38 0 37 0 -3 82 c-2 46 1 100 8
121 13 43 49 71 85 65 21 -5 25 -1 31 28 8 41 0 54 -33 54 -16 0 -38 -13 -59
-35 l-33 -35 -3 32 c-3 31 -5 33 -35 30z"/>
<path d="M3625 2746 c-130 -58 -137 -270 -11 -327 87 -39 190 -10 230 66 28
54 28 147 1 195 -38 66 -147 99 -220 66z m126 -69 c47 -36 54 -128 13 -176
-21 -26 -33 -31 -69 -31 -59 0 -95 41 -95 106 0 47 20 99 42 107 25 10 93 6
109 -6z"/>
<path d="M3950 2560 c0 -203 -3 -220 -42 -220 -14 0 -18 -8 -18 -36 0 -36 1
-36 32 -30 44 9 77 32 88 62 6 14 10 114 10 222 l0 197 -35 1 -35 0 0 -196z"/>
<path d="M4190 2742 c-87 -43 -116 -178 -59 -271 36 -60 144 -87 228 -58 29
10 34 17 35 45 1 17 0 32 0 32 -1 0 -18 -7 -37 -15 -83 -35 -177 2 -177 69 0
14 17 16 115 16 l115 0 0 48 c0 26 -8 62 -18 81 -33 65 -129 90 -202 53z"/>
<path d="M4575 2746 c-42 -18 -83 -69 -91 -112 -10 -54 1 -133 23 -162 40 -54
69 -67 148 -67 83 0 100 9 101 56 0 23 -3 28 -15 23 -86 -36 -151 -20 -177 43
-20 48 -13 107 17 139 27 28 96 33 142 10 l27 -15 0 39 c0 37 -2 40 -37 49
-51 14 -101 13 -138 -3z"/>
<path d="M5625 2756 c-5 -3 -22 -7 -37 -10 -23 -5 -28 -12 -28 -37 0 -28 3
-31 23 -25 98 27 157 12 157 -42 0 -27 -1 -28 -57 -27 -72 0 -119 -19 -138
-56 -57 -109 64 -206 169 -134 34 23 36 23 36 5 0 -16 7 -20 36 -20 l36 0 -4
140 -3 140 -32 32 c-28 27 -40 32 -90 35 -32 1 -62 1 -68 -1z"/>
<path d="M5951 2746 c-46 -25 -63 -88 -40 -140 11 -24 46 -46 99 -61 37 -11
50 -25 50 -51 0 -39 -62 -43 -142 -9 -15 6 -18 2 -18 -27 0 -32 3 -36 39 -46
109 -33 191 8 191 96 0 42 -33 78 -92 100 -60 22 -79 43 -62 70 12 18 54 21
110 7 32 -7 32 -7 25 26 -5 24 -14 35 -31 40 -41 12 -104 9 -129 -5z"/>
<path d="M3201 2201 c-32 -6 -36 -12 -86 -124 l-52 -117 -18 47 c-10 26 -33
80 -52 120 -32 70 -35 73 -68 73 l-35 0 0 -167 0 -168 25 0 25 0 0 135 0 135
33 -80 c54 -128 64 -145 93 -145 22 0 30 11 61 78 19 42 41 93 48 112 12 32
14 24 14 -96 l1 -132 25 -4 25 -5 0 173 c0 96 -1 173 -2 173 -2 -1 -18 -4 -37
-8z"/>
<path d="M5968 2195 c-34 -19 -48 -44 -48 -87 0 -49 24 -75 82 -93 28 -8 57
-20 64 -26 18 -15 18 -53 -1 -69 -21 -17 -87 -15 -124 5 l-31 16 0 -30 c0 -27
5 -31 42 -42 103 -27 179 11 180 90 1 54 -19 74 -91 99 -65 22 -80 40 -63 76
10 22 18 26 51 26 22 0 51 -4 65 -10 23 -9 26 -7 26 15 0 30 -9 35 -73 41 -35
3 -61 0 -79 -11z"/>
<path d="M5630 2150 c0 -29 -4 -40 -15 -40 -8 0 -15 -9 -15 -20 0 -11 7 -20
15 -20 12 0 15 -16 15 -80 0 -73 3 -83 25 -105 16 -17 35 -25 60 -25 31 0 35
3 35 26 0 20 -4 24 -19 19 -35 -11 -51 20 -51 96 l0 69 35 0 c28 0 35 4 35 20
0 16 -7 20 -35 20 -34 0 -35 1 -35 40 0 36 -2 40 -25 40 -22 0 -25 -4 -25 -40z"/>
<path d="M6660 2150 c0 -27 -4 -40 -14 -40 -7 0 -16 -9 -19 -20 -4 -15 0 -20
14 -20 17 0 19 -8 19 -85 0 -72 3 -88 21 -106 29 -29 93 -24 97 9 3 20 0 23
-18 17 -38 -12 -50 11 -50 91 l0 74 35 0 c28 0 35 4 35 20 0 16 -7 20 -35 20
-34 0 -35 1 -35 40 0 36 -2 40 -25 40 -22 0 -25 -4 -25 -40z"/>
<path d="M3350 2111 c-15 -4 -26 -15 -28 -27 -3 -20 1 -21 47 -16 55 5 81 -7
81 -39 0 -16 -8 -19 -50 -19 -62 0 -100 -31 -100 -80 0 -61 74 -92 129 -54 15
11 25 13 30 6 3 -5 14 -12 25 -14 17 -3 18 4 17 96 -1 55 -6 107 -11 117 -17
31 -84 46 -140 30z"/>
<path d="M3653 2108 c-13 -6 -23 -15 -23 -20 0 -4 -4 -8 -10 -8 -5 0 -7 7 -4
15 5 11 -1 15 -22 15 l-29 0 2 -120 c1 -66 4 -120 7 -120 3 0 15 0 26 0 18 0
20 7 20 81 0 44 5 89 10 100 12 22 62 26 78 6 6 -6 12 -52 14 -102 3 -88 3
-89 28 -89 24 0 25 3 28 68 5 90 -4 133 -33 162 -26 26 -56 29 -92 12z"/>
<path d="M3880 2111 c-15 -4 -26 -15 -28 -27 -3 -20 1 -21 47 -16 55 5 81 -7
81 -39 0 -16 -8 -19 -49 -19 -64 0 -101 -28 -101 -76 0 -21 8 -42 20 -54 24
-24 78 -26 106 -5 21 16 38 20 30 6 -3 -5 5 -11 19 -13 l25 -5 0 93 c0 51 -5
104 -11 118 -18 38 -77 54 -139 37z"/>
<path d="M4153 2106 c-43 -20 -66 -58 -66 -112 0 -55 26 -94 76 -113 33 -12
40 -11 77 7 l40 19 0 -22 c0 -41 -33 -69 -81 -70 -24 0 -54 4 -66 8 -20 7 -23
5 -23 -16 0 -19 6 -26 31 -31 88 -17 152 4 175 59 9 23 14 73 14 155 l0 120
-25 0 c-17 0 -25 -6 -25 -17 0 -15 -2 -15 -17 -1 -27 24 -74 29 -110 14z m107
-56 c12 -12 20 -33 20 -55 0 -46 -29 -75 -74 -75 -42 0 -66 29 -66 77 0 42 30
73 70 73 17 0 39 -9 50 -20z"/>
<path d="M4430 2098 c-63 -43 -72 -150 -17 -206 46 -46 177 -40 177 9 0 16 -4
19 -17 14 -47 -18 -88 -17 -115 5 -50 39 -38 50 58 50 l87 0 -6 46 c-10 89
-95 131 -167 82z"/>
<path d="M4737 2100 c-22 -18 -27 -19 -27 -6 0 10 -9 16 -25 16 l-25 0 0 -122
0 -123 25 0 c25 0 25 1 25 83 0 99 10 122 50 122 41 0 50 -23 50 -123 l0 -84
25 5 c24 4 25 7 25 84 0 95 10 118 50 118 40 0 50 -23 50 -122 0 -82 0 -83 25
-83 25 0 25 1 25 86 0 47 -5 100 -11 117 -18 52 -85 65 -132 24 -16 -14 -18
-14 -30 1 -21 28 -69 32 -100 7z"/>
<path d="M5145 2113 c-46 -11 -85 -70 -85 -128 0 -75 51 -125 127 -125 61 0
83 10 83 35 0 22 -2 22 -34 13 -41 -13 -79 -5 -106 22 -34 34 -24 40 70 40 90
0 90 0 90 25 0 48 -27 95 -64 110 -36 15 -46 16 -81 8z"/>
<path d="M5440 2113 c-8 -3 -23 -12 -32 -21 -16 -14 -18 -13 -18 1 0 11 -8 17
-25 17 l-25 0 0 -122 0 -123 25 0 c25 0 25 1 25 80 0 94 15 125 60 125 40 0
50 -23 50 -122 0 -82 0 -83 25 -83 25 0 25 0 25 98 0 96 -1 99 -29 128 -28 28
-49 34 -81 22z"/>
<path d="M6462 2108 c-35 -17 -46 -86 -19 -115 7 -7 30 -19 52 -26 32 -11 40
-19 40 -38 0 -19 -6 -25 -28 -27 -15 -2 -41 3 -57 12 -29 14 -30 14 -30 -10 0
-48 103 -62 145 -19 46 45 24 106 -44 125 -38 10 -57 32 -45 52 4 6 28 8 55 6
43 -4 49 -3 49 14 0 33 -71 48 -118 26z"/>
<path d="M6873 2106 c-41 -19 -63 -62 -63 -125 0 -71 36 -112 106 -118 61 -6
104 9 104 36 0 18 -3 19 -30 9 -53 -18 -130 11 -130 49 0 10 20 13 85 13 l85
0 0 40 c0 78 -83 128 -157 96z"/>
<path d="M7180 2113 c-8 -3 -23 -12 -32 -21 -16 -14 -18 -13 -18 1 0 11 -8 17
-25 17 l-25 0 0 -122 0 -123 25 0 c25 0 25 1 25 80 0 94 15 125 59 125 36 0
40 -9 42 -114 2 -77 4 -86 20 -86 11 0 22 -1 25 -2 3 -2 6 36 7 83 2 96 13
119 57 119 36 0 40 -13 40 -115 0 -80 1 -83 25 -87 13 -3 26 -4 27 -2 2 1 1
50 -2 108 -6 123 -16 141 -81 141 -28 0 -45 -6 -54 -19 -13 -18 -15 -18 -41 3
-27 21 -45 24 -74 14z"/>
<path d="M6160 2106 c0 -2 22 -55 48 -118 l49 -115 -24 -46 -23 -47 25 0 c23
0 31 11 65 83 22 45 53 119 69 165 l30 83 -26 -3 c-24 -3 -30 -13 -59 -92
l-31 -90 -32 82 c-17 45 -31 86 -31 92 0 5 -13 10 -30 10 -16 0 -30 -2 -30 -4z"/>
</g>
</svg>
